<?xml version="1.0" encoding="UTF-8"?>
<!DOCTYPE svg PUBLIC "-//W3C//DTD SVG 1.1//EN" "http://www.w3.org/Graphics/SVG/1.1/DTD/svg11.dtd">
<svg xmlns="http://www.w3.org/2000/svg" version="1.1" width="1024px" height="1024px" style="shape-rendering:geometricPrecision; text-rendering:geometricPrecision; image-rendering:optimizeQuality; fill-rule:evenodd; clip-rule:evenodd" xmlns:xlink="http://www.w3.org/1999/xlink">
<g><path style="opacity:0.98" fill="#fefefe" d="M 480.5,75.5 C 625.037,65.0439 745.537,113.377 842,220.5C 929.246,317.579 966.579,431.579 954,562.5C 946.334,659.608 909.668,743.608 844,814.5C 746.19,919.279 625.357,966.779 481.5,957C 385.388,950.765 301.388,916.098 229.5,853C 205.164,830.339 182.664,806.172 162,780.5C 112.26,714.294 84.9263,639.628 80,556.5C 69.2814,427.651 106.948,315.651 193,220.5C 269.661,134.429 365.494,86.0954 480.5,75.5 Z M 503.5,105.5 C 631.309,105.17 737.476,152.504 822,247.5C 922.703,369.029 949.037,505.362 901,656.5C 855.885,774.948 774.052,856.782 655.5,902C 508.746,950.376 375.08,926.71 254.5,831C 139.074,727.084 93.2406,597.917 117,443.5C 142.883,323.481 207.383,230.648 310.5,165C 370.157,129.724 434.49,109.89 503.5,105.5 Z M 496.5,419.5 C 493.267,438.712 482.934,453.212 465.5,463C 460.712,464.53 456.045,466.363 451.5,468.5C 450.494,468.062 450.494,467.396 451.5,466.5C 450.333,466.167 449.167,465.833 448,465.5C 444.516,466.333 441.016,466.499 437.5,466C 440.721,462.779 443.887,459.613 447,456.5C 449.209,453.859 449.709,451.025 448.5,448C 466.853,442.329 482.853,432.829 496.5,419.5 Z M 444.5,442.5 C 445.946,441.387 447.613,441.22 449.5,442C 448.299,442.903 447.465,444.069 447,445.5C 446.148,444.429 445.315,443.429 444.5,442.5 Z M 691.5,703.5 C 682.175,702.934 672.842,702.434 663.5,702C 673.144,699.578 682.477,700.078 691.5,703.5 Z"/></g>
<g><path style="opacity:0.999" fill="#fefefe" d="M 372.5,481.5 C 353.847,460.383 343.68,435.716 342,407.5C 349.034,427.066 360.201,443.9 375.5,458C 381.422,462.261 387.588,466.094 394,469.5C 397.753,483.664 393.42,494.664 381,502.5C 382.337,515.505 386.67,527.505 394,538.5C 400.945,548.713 408.611,558.379 417,567.5C 421.94,599.954 418.94,631.62 408,662.5C 406.5,665.5 405,668.5 403.5,671.5C 402.635,672.583 401.635,672.749 400.5,672C 392.881,661.211 383.548,652.377 372.5,645.5C 373.998,634.56 374.831,623.56 375,612.5C 375.667,610.5 377,609.167 379,608.5C 379.163,603.133 378.663,597.799 377.5,592.5C 376.553,590.6 375.053,589.267 373,588.5C 372.271,584.398 370.438,580.898 367.5,578C 347.901,573.825 328.068,571.992 308,572.5C 296.475,572.49 284.975,572.99 273.5,574C 265.254,574.596 257.254,576.262 249.5,579C 247.878,582.027 246.545,585.194 245.5,588.5C 243.807,589.228 242.307,590.228 241,591.5C 239.485,597.097 238.819,602.764 239,608.5C 240.085,609.293 241.252,609.96 242.5,610.5C 243.678,620.98 244.678,631.48 245.5,642C 245.666,645.165 244.333,647.332 241.5,648.5C 237.56,655.101 237.56,661.767 241.5,668.5C 235.719,675.143 235.053,682.31 239.5,690C 233.715,703.183 234.548,716.017 242,728.5C 240.235,742.542 245.068,753.709 256.5,762C 262.41,765.123 268.41,767.956 274.5,770.5C 278.708,781.762 285.042,791.595 293.5,800C 290.739,803.356 288.906,807.189 288,811.5C 183.971,724.709 137.638,613.376 149,477.5C 159.237,396.345 191.57,325.678 246,265.5C 325.6,179.836 424.1,139.002 541.5,143C 614.536,148.543 679.869,173.543 737.5,218C 853.145,311.511 901.645,432.344 883,580.5C 878.246,608.526 870.246,635.526 859,661.5C 854.413,653.996 850.08,646.329 846,638.5C 849.144,607.214 842.477,578.214 826,551.5C 812.243,533.001 800.243,513.334 790,492.5C 782.649,474.762 777.315,456.429 774,437.5C 770.193,403.426 765.859,369.426 761,335.5C 740.383,247.557 687.217,189.724 601.5,162C 519.361,144.283 447.028,163.283 384.5,219C 328.038,275.741 308.871,343.241 327,421.5C 332.954,442.099 343.787,459.599 359.5,474C 363.562,477.029 367.895,479.529 372.5,481.5 Z M 496.5,419.5 C 482.853,432.829 466.853,442.329 448.5,448C 449.709,451.025 449.209,453.859 447,456.5C 443.887,459.613 440.721,462.779 437.5,466C 441.016,466.499 444.516,466.333 448,465.5C 449.167,465.833 450.333,466.167 451.5,466.5C 450.494,467.396 450.494,468.062 451.5,468.5C 456.045,466.363 460.712,464.53 465.5,463C 482.934,453.212 493.267,438.712 496.5,419.5 Z M 444.5,442.5 C 445.315,443.429 446.148,444.429 447,445.5C 447.465,444.069 448.299,442.903 449.5,442C 447.613,441.22 445.946,441.387 444.5,442.5 Z"/></g>
<g><path style="opacity:0.998" fill="#fefefe" d="M 667.5,246.5 C 678.693,271.915 687.193,298.248 693,325.5C 700.188,358.629 705.855,391.962 710,425.5C 697.143,405.796 685.81,385.129 676,363.5C 679.759,411.88 693.426,457.213 717,499.5C 727.171,514.844 738.671,529.178 751.5,542.5C 768.176,557.677 784.343,573.343 800,589.5C 822.761,616.008 839.595,646.008 850.5,679.5C 848.39,686.386 845.224,692.719 841,698.5C 836.538,675.58 827.204,654.913 813,636.5C 803.9,625.397 794.067,614.897 783.5,605C 760.829,586.75 738.662,567.916 717,548.5C 700.538,530.249 686.538,510.249 675,488.5C 678.861,514.077 687.861,537.744 702,559.5C 710.363,571.698 718.53,584.031 726.5,596.5C 712.844,585.041 699.344,572.708 686,559.5C 672.647,545.123 664.98,528.123 663,508.5C 662.493,462.434 660.493,416.434 657,370.5C 655.282,351.86 651.949,333.526 647,315.5C 647.102,325.801 647.269,336.134 647.5,346.5C 647.641,355.929 647.141,365.263 646,374.5C 636.205,365.045 627.538,354.711 620,343.5C 600.055,312.604 580.888,281.27 562.5,249.5C 572.502,294.673 587.002,338.34 606,380.5C 615.35,403.885 622.684,427.885 628,452.5C 634.658,483.692 633.992,514.692 626,545.5C 620.275,566.791 609.109,584.624 592.5,599C 589.108,601.694 585.441,603.86 581.5,605.5C 606.411,579.137 618.411,547.637 617.5,511C 616.636,478.04 610.136,446.206 598,415.5C 592,400.833 586,386.167 580,371.5C 586.995,410.121 590.829,449.121 591.5,488.5C 591.688,521.331 587.854,553.664 580,585.5C 573.132,608.9 562.799,630.567 549,650.5C 542.386,658.121 534.886,664.621 526.5,670C 515.865,675.652 505.198,681.319 494.5,687C 484.089,693.407 476.589,702.241 472,713.5C 471.484,719.218 471.484,724.885 472,730.5C 466.073,722.453 464.073,713.453 466,703.5C 469.354,692.473 475.521,683.306 484.5,676C 494.777,669.389 504.777,662.389 514.5,655C 528.138,641.565 536.971,625.399 541,606.5C 549.929,569.225 551.929,531.558 547,493.5C 545.723,505.362 544.723,517.362 544,529.5C 543.667,531.5 543.333,533.5 543,535.5C 542.667,535.167 542.333,534.833 542,534.5C 537.861,462.616 524.194,392.616 501,324.5C 495.881,310.269 489.714,296.602 482.5,283.5C 494.787,323.147 505.12,363.314 513.5,404C 513.167,404.5 512.833,405 512.5,405.5C 502.101,395.603 492.601,384.936 484,373.5C 467.251,349.009 451.251,324.009 436,298.5C 438.953,321.984 444.286,344.984 452,367.5C 454.705,373.742 457.538,379.908 460.5,386C 458.087,386.484 455.754,386.15 453.5,385C 428.02,371.853 409.853,352.02 399,325.5C 395.903,343.994 394.236,362.661 394,381.5C 383.157,366.808 375.823,350.475 372,332.5C 371.727,334.101 371.227,335.601 370.5,337C 370.436,350.651 370.602,364.484 371,378.5C 362.752,368.665 357.752,357.331 356,344.5C 353.834,371.177 357,397.177 365.5,422.5C 358.891,416.636 353.724,409.636 350,401.5C 345.879,393.136 342.545,384.469 340,375.5C 338.787,381.36 337.121,387.027 335,392.5C 327.26,308.481 359.093,244.315 430.5,200C 477.39,172.36 527.723,162.694 581.5,171C 642.504,182.013 682.17,217.013 700.5,276C 700.333,276.5 700.167,277 700,277.5C 689.6,266.598 678.767,256.264 667.5,246.5 Z"/></g>
<g><path style="opacity:0.998" fill="#fefefe" d="M 385.5,425.5 C 397.011,432.889 409.344,437.222 422.5,438.5C 405.967,415.697 399.134,390.364 402,362.5C 409.633,373.633 418.8,383.3 429.5,391.5C 425.313,392.843 421.48,394.843 418,397.5C 417.731,400.28 418.898,402.446 421.5,404C 425.108,403.521 428.775,402.854 432.5,402C 437.5,401.333 442.5,401.333 447.5,402C 463.608,406.288 479.941,409.288 496.5,411C 504,419.833 511.5,428.667 519,437.5C 526.802,480.518 530.969,523.851 531.5,567.5C 513.853,579.654 494.52,587.988 473.5,592.5C 472.167,592.333 470.833,592.167 469.5,592C 446.613,578.453 426.78,561.286 410,540.5C 404.503,532.999 399.836,524.999 396,516.5C 394.787,513.232 394.454,509.899 395,506.5C 398.575,502.347 401.909,498.014 405,493.5C 409.561,483.185 409.561,472.852 405,462.5C 397.965,450.429 391.465,438.096 385.5,425.5 Z M 496.5,419.5 C 482.853,432.829 466.853,442.329 448.5,448C 449.709,451.025 449.209,453.859 447,456.5C 443.887,459.613 440.721,462.779 437.5,466C 441.016,466.499 444.516,466.333 448,465.5C 449.167,465.833 450.333,466.167 451.5,466.5C 450.494,467.396 450.494,468.062 451.5,468.5C 456.045,466.363 460.712,464.53 465.5,463C 482.934,453.212 493.267,438.712 496.5,419.5 Z M 444.5,442.5 C 445.315,443.429 446.148,444.429 447,445.5C 447.465,444.069 448.299,442.903 449.5,442C 447.613,441.22 445.946,441.387 444.5,442.5 Z"/></g>
<g><path style="opacity:0.991" fill="#f9f9f9" d="M 610.5,376.5 C 625.364,377.864 634.531,385.864 638,400.5C 641.321,413.879 638.654,425.879 630,436.5C 627.292,423.959 624.459,411.459 621.5,399C 622.308,398.692 622.975,398.192 623.5,397.5C 620.813,393.979 617.647,390.979 614,388.5C 612.119,384.693 610.953,380.693 610.5,376.5 Z"/></g>
<g><path style="opacity:0.992" fill="#fbfbfb" d="M 754.5,455.5 C 770.042,491.252 789.208,524.919 812,556.5C 820.007,569.184 825.673,582.851 829,597.5C 830.218,602.455 830.551,607.455 830,612.5C 819.411,594.984 808.078,577.984 796,561.5C 774.419,529.269 760.586,493.935 754.5,455.5 Z"/></g>
<g><path style="opacity:0.989" fill="#fcfcfc" d="M 288.5,582.5 C 308.227,582.037 327.894,582.87 347.5,585C 358.052,587.306 357.718,589.306 346.5,591C 320.83,594.317 295.164,594.317 269.5,591C 266.459,590.424 263.792,589.258 261.5,587.5C 261.709,586.914 262.043,586.414 262.5,586C 271.292,584.652 279.959,583.486 288.5,582.5 Z"/></g>
<g><path style="opacity:0.988" fill="#fcfcfc" d="M 669.5,615.5 C 669.5,610.5 669.5,605.5 669.5,600.5C 675.593,600.139 681.593,600.639 687.5,602C 689.113,607.495 690.78,612.995 692.5,618.5C 693.494,613.544 693.827,608.544 693.5,603.5C 700.22,604.526 706.22,607.193 711.5,611.5C 712.828,619.781 713.828,628.114 714.5,636.5C 674.467,623.647 636.801,628.647 601.5,651.5C 601.167,651.333 600.833,651.167 600.5,651C 610.021,636.474 620.688,622.807 632.5,610C 634.955,608.688 637.455,607.522 640,606.5C 645.008,624.135 646.675,623.801 645,605.5C 650.574,603.017 656.407,601.35 662.5,600.5C 663.167,600.833 663.833,601.167 664.5,601.5C 665.729,606.479 666.896,611.479 668,616.5C 668.383,615.944 668.883,615.611 669.5,615.5 Z"/></g>
<g><path style="opacity:0.999" fill="#fafafa" d="M 434.5,707.5 C 434.167,707.5 433.833,707.5 433.5,707.5C 427.72,708.132 422.054,708.965 416.5,710C 413.271,703.145 410.937,695.979 409.5,688.5C 414.085,679.268 418.585,669.935 423,660.5C 430.684,640.098 436.017,619.098 439,597.5C 447.747,626.902 448.747,656.569 442,686.5C 439.45,693.577 436.95,700.577 434.5,707.5 Z"/></g>
<g><path style="opacity:0.986" fill="#f9f9f9" d="M 755.5,598.5 C 776.24,623.885 785.407,652.885 783,685.5C 773.324,656.641 764.158,627.641 755.5,598.5 Z"/></g>
<g><path style="opacity:0.486" fill="#b0adab" d="M 618.5,606.5 C 618.5,605.833 618.167,605.5 617.5,605.5C 618.574,604.115 619.907,602.949 621.5,602C 622.167,601.333 622.833,601.333 623.5,602C 621.963,603.707 620.296,605.207 618.5,606.5 Z"/></g>
<g><path style="opacity:0.989" fill="#fbfbfb" d="M 617.5,605.5 C 618.167,605.5 618.5,605.833 618.5,606.5C 615.863,610.248 612.863,613.748 609.5,617C 588,636.5 566.5,656 545,675.5C 517.204,703.15 500.204,736.483 494,775.5C 492.439,786.638 494.273,797.138 499.5,807C 497.721,806.956 496.055,806.289 494.5,805C 485.192,791.879 482.358,777.379 486,761.5C 489.655,742.192 496.655,724.192 507,707.5C 519.928,687.231 535.095,668.731 552.5,652C 574.196,636.491 595.863,620.991 617.5,605.5 Z"/></g>
<g><path style="opacity:0.997" fill="#fdfdfd" d="M 254.5,613.5 C 280.355,617.291 306.355,618.458 332.5,617C 342.868,615.911 353.201,614.911 363.5,614C 364.059,614.725 364.392,615.558 364.5,616.5C 363.521,626.139 362.855,635.806 362.5,645.5C 342.08,650.074 321.414,651.574 300.5,650C 286.532,648.07 272.532,646.403 258.5,645C 257.874,644.25 257.374,643.416 257,642.5C 255.715,632.868 254.882,623.201 254.5,613.5 Z"/></g>
<g><path style="opacity:0.985" fill="#f5f5f5" d="M 717.5,615.5 C 725.525,620.387 728.858,627.554 727.5,637C 727.167,639.5 726.833,642 726.5,644.5C 723.528,642.694 720.695,640.694 718,638.5C 717.5,630.841 717.334,623.174 717.5,615.5 Z"/></g>
<g><path style="opacity:0.995" fill="#fbfbfb" d="M 664.5,636.5 C 668.106,636.211 671.606,636.544 675,637.5C 676.167,644.001 677.333,650.501 678.5,657C 678.325,658.658 677.658,659.991 676.5,661C 669.81,661.558 663.143,661.891 656.5,662C 655.085,654.26 654.085,646.427 653.5,638.5C 657.337,638.069 661.003,637.402 664.5,636.5 Z"/></g>
<g><path style="opacity:0.994" fill="#fcfcfc" d="M 681.5,637.5 C 688.208,637.368 694.708,638.368 701,640.5C 702.603,648.783 703.77,657.116 704.5,665.5C 697.302,663.894 690.135,662.228 683,660.5C 682.223,652.847 681.723,645.181 681.5,637.5 Z"/></g>
<g><path style="opacity:0.992" fill="#fcfcfc" d="M 644.5,639.5 C 646.776,639.756 647.943,641.09 648,643.5C 649.222,649.948 650.555,656.281 652,662.5C 645.038,665.209 637.872,667.209 630.5,668.5C 629.202,660.855 628.368,653.189 628,645.5C 633.555,643.373 639.055,641.373 644.5,639.5 Z"/></g>
<g><path style="opacity:0.992" fill="#fcfcfc" d="M 707.5,642.5 C 713.001,644.5 718.167,647.167 723,650.5C 725.854,659.624 727.187,668.957 727,678.5C 721.172,674.252 715.172,670.252 709,666.5C 708.27,658.51 707.77,650.51 707.5,642.5 Z"/></g>
<g><path style="opacity:0.851" fill="#b6b0af" d="M 595.5,644.5 C 595.262,646.404 594.262,647.738 592.5,648.5C 592.5,647.833 592.167,647.5 591.5,647.5C 592.262,645.738 593.596,644.738 595.5,644.5 Z"/></g>
<g><path style="opacity:0.994" fill="#fcfcfc" d="M 591.5,647.5 C 592.167,647.5 592.5,647.833 592.5,648.5C 578.264,668.626 564.764,689.292 552,710.5C 543.162,725.847 536.828,742.18 533,759.5C 528.525,783.331 532.858,805.331 546,825.5C 550.395,830.064 554.895,834.398 559.5,838.5C 538.055,833.232 523.222,820.232 515,799.5C 507.003,776.445 508.003,753.779 518,731.5C 530.038,708.121 545.871,687.621 565.5,670C 574.334,662.664 583.001,655.164 591.5,647.5 Z"/></g>
<g><path style="opacity:0.989" fill="#fcfcfc" d="M 618.5,649.5 C 619.5,649.5 620.5,649.5 621.5,649.5C 623.2,656.637 625.033,663.637 627,670.5C 621.081,674.544 614.914,678.211 608.5,681.5C 605.316,674.458 603.482,667.125 603,659.5C 608.146,656.018 613.313,652.685 618.5,649.5 Z"/></g>
<g><path style="opacity:0.996" fill="#fdfdfd" d="M 294.5,729.5 C 280.276,722.719 266.61,714.886 253.5,706C 244.508,698.318 245.842,695.318 257.5,697C 270.519,701.867 283.852,705.201 297.5,707C 284.347,700.923 271.347,694.59 258.5,688C 255.061,685.861 251.894,683.361 249,680.5C 248.673,676.463 250.673,674.463 255,674.5C 257.5,675 260,675.5 262.5,676C 282.207,681.575 301.874,686.909 321.5,692C 304.322,678.824 284.989,670.491 263.5,667C 252.517,661.968 252.85,658.301 264.5,656C 276.026,654.87 287.359,655.87 298.5,659C 313.4,664.783 328.066,671.116 342.5,678C 351.491,681.632 360.824,683.798 370.5,684.5C 372.32,684.351 373.82,683.684 375,682.5C 376.624,676.593 377.791,670.593 378.5,664.5C 387.886,671.736 394.386,681.069 398,692.5C 400.472,699.415 402.639,706.415 404.5,713.5C 404.167,714.5 403.833,715.5 403.5,716.5C 375.781,728.11 352.281,745.443 333,768.5C 310.229,756.864 287.395,745.364 264.5,734C 258.392,730.895 254.059,726.229 251.5,720C 251.281,718.029 252.115,716.862 254,716.5C 267.035,722.3 280.535,726.633 294.5,729.5 Z"/></g>
<g><path style="opacity:0.986" fill="#f9f9f9" d="M 730.5,657.5 C 738.335,665.602 742.002,675.436 741.5,687C 741.167,689.5 740.833,692 740.5,694.5C 737.912,690.324 735.079,686.324 732,682.5C 731.519,674.16 731.019,665.827 730.5,657.5 Z"/></g>
<g><path style="opacity:0.988" fill="#fbfafa" d="M 595.5,664.5 C 596.75,664.577 597.583,665.244 598,666.5C 599.627,672.413 601.794,678.079 604.5,683.5C 600.209,688.786 595.209,693.453 589.5,697.5C 585.948,690.955 584.448,683.955 585,676.5C 588.336,672.332 591.836,668.332 595.5,664.5 Z"/></g>
<g><path style="opacity:0.506" fill="#a19d9d" d="M 462.5,670.5 C 462.672,669.508 462.338,668.842 461.5,668.5C 461.892,666.821 462.392,665.154 463,663.5C 463.796,666.039 463.629,668.372 462.5,670.5 Z"/></g>
<g><path style="opacity:0.996" fill="#eae9e9" d="M 461.5,668.5 C 462.338,668.842 462.672,669.508 462.5,670.5C 461.749,689.16 455.083,705.327 442.5,719C 441.833,719.667 441.167,719.667 440.5,719C 438.767,714.774 436.433,710.941 433.5,707.5C 433.833,707.5 434.167,707.5 434.5,707.5C 436.099,709.604 437.932,711.604 440,713.5C 449.298,699.569 456.464,684.569 461.5,668.5 Z"/></g>
<g><path style="opacity:0.998" fill="#fefefe" d="M 611.5,835.5 C 591.873,843.037 574.706,839.37 560,824.5C 557.304,820.44 555.137,816.107 553.5,811.5C 568.495,782.835 585.995,755.835 606,730.5C 609.333,728.333 612.166,725.666 614.5,722.5C 596.759,734.055 580.593,747.722 566,763.5C 565.39,759.764 565.723,756.097 567,752.5C 578.243,722.267 597.743,699.1 625.5,683C 649.322,671.35 673.989,669.016 699.5,676C 713.944,682.778 724.778,693.278 732,707.5C 738.955,720.317 741.955,733.984 741,748.5C 736.097,739.259 730.764,730.259 725,721.5C 724.667,726.833 724.333,732.167 724,737.5C 720.333,729.833 716.667,722.167 713,714.5C 706.37,757.389 692.37,797.722 671,835.5C 663.743,845.679 656.243,855.679 648.5,865.5C 614.485,878.796 579.319,887.129 543,890.5C 537.333,881.5 531.667,872.5 526,863.5C 523.435,857.444 522.269,851.278 522.5,845C 526.446,842.443 530.613,840.277 535,838.5C 549.901,847.6 566.068,851.433 583.5,850C 594.715,848.561 604.048,843.728 611.5,835.5 Z M 691.5,703.5 C 682.477,700.078 673.144,699.578 663.5,702C 672.842,702.434 682.175,702.934 691.5,703.5 Z"/></g>
<g><path style="opacity:0.992" fill="#f9f9f9" d="M 578.5,687.5 C 579.376,687.369 580.043,687.702 580.5,688.5C 581.973,692.779 583.973,696.779 586.5,700.5C 582.644,706.891 578.311,712.891 573.5,718.5C 571.325,714.973 569.992,711.14 569.5,707C 571.566,700.036 574.566,693.536 578.5,687.5 Z"/></g>
<g><path style="opacity:0.975" fill="#f6f5f5" d="M 507.5,695.5 C 500.182,708.804 493.348,722.47 487,736.5C 483.342,737.546 481.175,736.046 480.5,732C 486.255,717.415 495.255,705.248 507.5,695.5 Z"/></g>
<g><path style="opacity:1" fill="#969696" d="M 692.5,704.5 C 692.5,704.167 692.5,703.833 692.5,703.5C 694.308,703.491 695.975,703.991 697.5,705C 695.803,705.384 694.137,705.218 692.5,704.5 Z"/></g>
<g><path style="opacity:0.993" fill="#fbfbfb" d="M 563.5,714.5 C 566.113,717.011 568.28,720.011 570,723.5C 570.996,727.207 570.33,730.541 568,733.5C 567.851,756.095 561.184,776.428 548,794.5C 544,773.496 546.333,753.163 555,733.5C 557.848,727.141 560.681,720.807 563.5,714.5 Z"/></g>
<g><path style="opacity:0.994" fill="#fcfcfc" d="M 419.5,720.5 C 422.119,720.232 424.619,720.565 427,721.5C 431.333,730.167 435.667,738.833 440,747.5C 440.977,749.74 441.477,752.073 441.5,754.5C 436.782,755.802 432.115,756.968 427.5,758C 423.993,748.483 419.326,739.65 413.5,731.5C 412.28,731.887 411.613,732.72 411.5,734C 414.308,742.781 418.308,750.948 423.5,758.5C 418.074,762.967 411.908,766.3 405,768.5C 400.44,760.383 396.107,752.05 392,743.5C 389.8,742.01 387.966,742.343 386.5,744.5C 390.01,753.69 394.676,762.19 400.5,770C 395.833,773.333 391.167,776.667 386.5,780C 384.956,781.187 383.289,781.52 381.5,781C 377.479,773.941 373.646,766.775 370,759.5C 367.771,756.844 365.938,757.177 364.5,760.5C 367.894,768.289 372.06,775.622 377,782.5C 377.667,783.833 377.667,785.167 377,786.5C 372.609,790.562 367.943,794.229 363,797.5C 358.413,789.988 353.579,782.655 348.5,775.5C 347.167,776.167 346.167,777.167 345.5,778.5C 349.284,786.571 353.95,794.071 359.5,801C 357.314,804.181 354.814,807.015 352,809.5C 345.578,802.719 340.245,795.052 336,786.5C 335.333,785.5 335.333,784.5 336,783.5C 342.281,772.208 350.448,762.375 360.5,754C 378.126,739.188 397.793,728.022 419.5,720.5 Z"/></g>
<g><path style="opacity:0.975" fill="#f6f5f5" d="M 258.5,741.5 C 268.101,745.758 277.768,749.925 287.5,754C 279.636,754.634 271.969,753.634 264.5,751C 260.345,749.189 258.345,746.023 258.5,741.5 Z"/></g>
<g><path style="opacity:0.995" fill="#fcfcfc" d="M 472.5,741.5 C 475.871,742.323 479.204,743.489 482.5,745C 483.022,745.561 483.355,746.228 483.5,747C 479.733,761.636 478.567,776.469 480,791.5C 473.1,782.937 466.6,774.104 460.5,765C 464.122,756.921 468.122,749.088 472.5,741.5 Z"/></g>
<g><path style="opacity:0.998" fill="#fefefe" d="M 438.5,766.5 C 442.594,765.705 445.761,767.038 448,770.5C 460.667,788.5 473.333,806.5 486,824.5C 487.946,828.596 488.78,832.93 488.5,837.5C 486.514,849.102 485.347,860.769 485,872.5C 486.685,866.959 489.518,862.126 493.5,858C 501.755,852.528 507.921,854.361 512,863.5C 513.715,872.469 513.882,881.469 512.5,890.5C 474.92,890.393 438.253,884.56 402.5,873C 392.886,870.106 383.719,866.273 375,861.5C 370.028,848.946 365.361,836.279 361,823.5C 360.245,820.697 360.578,818.03 362,815.5C 382.931,792.076 408.431,775.742 438.5,766.5 Z"/></g>
</svg>
