<?xml version="1.0" encoding="UTF-8"?>
<!DOCTYPE svg PUBLIC "-//W3C//DTD SVG 1.1//EN" "http://www.w3.org/Graphics/SVG/1.1/DTD/svg11.dtd">
<svg xmlns="http://www.w3.org/2000/svg" version="1.1" width="4611px" height="4612px" style="shape-rendering:geometricPrecision; text-rendering:geometricPrecision; image-rendering:optimizeQuality; fill-rule:evenodd; clip-rule:evenodd" xmlns:xlink="http://www.w3.org/1999/xlink">
<g><path style="opacity:1" fill="#fefefe" d="M 2188.5,-0.5 C 2265.83,-0.5 2343.17,-0.5 2420.5,-0.5C 2873.59,12.2474 3283.25,150.414 3649.5,414C 3735.24,477.371 3816.57,546.371 3893.5,621C 3951.15,676.979 4006.98,734.479 4061,793.5C 4302.21,1065.19 4465.88,1379.19 4552,1735.5C 4585.42,1879.9 4604.92,2025.9 4610.5,2173.5C 4610.5,2261.83 4610.5,2350.17 4610.5,2438.5C 4600.33,2734.51 4533.5,3017.17 4410,3286.5C 4305,3511.74 4166,3713.07 3993,3890.5C 3935.02,3950.15 3875.52,4007.98 3814.5,4064C 3527.73,4317.39 3195.73,4484.72 2818.5,4566C 2687.37,4593 2555.03,4608.16 2421.5,4611.5C 2343.17,4611.5 2264.83,4611.5 2186.5,4611.5C 1702.8,4596.91 1271.14,4441.75 891.5,4146C 838.392,4103.57 787.059,4058.91 737.5,4012C 676.914,3952.42 617.414,3891.92 559,3830.5C 288.507,3529.17 114.173,3178.17 36,2777.5C 15.9514,2669.56 3.78472,2560.89 -0.5,2451.5C -0.5,2352.83 -0.5,2254.17 -0.5,2155.5C 18.6135,1712.28 157.78,1311.95 417,954.5C 474.447,876.691 536.781,802.691 604,732.5C 646.5,690 689,647.5 731.5,605C 1005.1,343.451 1326.44,164.118 1695.5,67C 1857.44,25.9364 2021.77,3.43644 2188.5,-0.5 Z"/></g>
<g><path style="opacity:1" fill="#ea92ae" d="M 2273.5,139.5 C 2672.56,135.845 3044.9,233.011 3390.5,431C 3737.33,635.161 4008.5,912.995 4204,1264.5C 4401.09,1628.88 4488.42,2018.21 4466,2432.5C 4437.73,2872.45 4291.73,3267.45 4028,3617.5C 3766.86,3956.23 3435.02,4199.06 3032.5,4346C 2657.47,4476.93 2274.8,4505.26 1884.5,4431C 1464.2,4345.22 1100.87,4154.55 794.5,3859C 492.623,3562.55 292.456,3207.05 194,2792.5C 131.454,2516.3 122.12,2238.3 166,1958.5C 232.736,1561.15 395.069,1209.48 653,903.5C 921.098,590.954 1251.6,370.454 1644.5,242C 1849.15,177.044 2058.81,142.877 2273.5,139.5 Z"/></g>
<g><path style="opacity:1" fill="#fefefe" d="M 2035.5,2599.5 C 2034.79,2598.6 2033.79,2598.26 2032.5,2598.5C 2032.23,2600.1 2032.57,2601.43 2033.5,2602.5C 2035.9,2630.47 2048.9,2651.97 2072.5,2667C 2091.18,2677.34 2111.18,2683.34 2132.5,2685C 2180.18,2685.58 2227.84,2685.08 2275.5,2683.5C 2320.74,2681.95 2365.07,2687.45 2408.5,2700C 2450.64,2714.58 2492.64,2729.41 2534.5,2744.5C 2522.51,2815.64 2509.67,2886.64 2496,2957.5C 2489.58,2990.81 2501.08,3015.48 2530.5,3031.5C 2536.33,2985.49 2542.17,2939.49 2548,2893.5C 2572.24,2904.7 2596.41,2916.04 2620.5,2927.5C 2611.24,2958.2 2603.07,2989.2 2596,3020.5C 2590.34,3043.47 2580.68,3064.47 2567,3083.5C 2530.25,3117.66 2507.58,3159.66 2499,3209.5C 2494.08,3232.78 2489.41,3256.11 2485,3279.5C 2479.43,3326.77 2474.43,3374.1 2470,3421.5C 2465.34,3450.77 2459.68,3479.77 2453,3508.5C 2424.15,3483.74 2395.48,3458.74 2367,3433.5C 2361.7,3442.96 2356.2,3452.3 2350.5,3461.5C 2363.47,3482.3 2376.64,3502.97 2390,3523.5C 2390.52,3525.29 2390.19,3526.96 2389,3528.5C 2385.33,3533.5 2381.67,3538.5 2378,3543.5C 2350.21,3534.09 2322.38,3524.76 2294.5,3515.5C 2273.46,3537.22 2248.12,3544.39 2218.5,3537C 2195.45,3530.82 2175.45,3519.48 2158.5,3503C 2153.5,3500 2148.5,3497 2143.5,3494C 2119.5,3482.4 2095.34,3471.9 2071,3462.5C 2062.44,3486.61 2053.61,3510.61 2044.5,3534.5C 2032.05,3538.63 2019.39,3539.8 2006.5,3538C 2000.23,3535.74 1995.06,3531.9 1991,3526.5C 1986.37,3518.96 1982.71,3510.96 1980,3502.5C 1974.03,3496.53 1967.03,3492.2 1959,3489.5C 1949.43,3485.98 1939.59,3483.48 1929.5,3482C 1903.55,3480.06 1877.55,3479.06 1851.5,3479C 1763.16,3478.55 1674.83,3478.55 1586.5,3479C 1573.01,3477.83 1563.84,3470.99 1559,3458.5C 1556.37,3450.04 1555.03,3441.38 1555,3432.5C 1555.49,3396.67 1556.32,3360.83 1557.5,3325C 1559.61,3283.12 1552.45,3242.96 1536,3204.5C 1535.59,3204.04 1535.09,3203.71 1534.5,3203.5C 1524.38,3208.46 1514.38,3213.63 1504.5,3219C 1490.22,3224.68 1475.89,3224.68 1461.5,3219C 1451.22,3215.52 1441.22,3211.35 1431.5,3206.5C 1429.75,3196.59 1430.59,3186.92 1434,3177.5C 1457.88,3172.59 1481.38,3174.09 1504.5,3182C 1515.06,3186.78 1525.72,3191.28 1536.5,3195.5C 1542.2,3192.9 1547.7,3189.9 1553,3186.5C 1539.8,3068.23 1524.47,2950.23 1507,2832.5C 1502.38,2820.23 1494.55,2810.73 1483.5,2804C 1465.85,2802.91 1448.19,2802.24 1430.5,2802C 1367.5,2801.5 1304.5,2801.33 1241.5,2801.5C 1245.52,2825.69 1259.52,2840.19 1283.5,2845C 1295.8,2846.18 1308.13,2846.84 1320.5,2847C 1351.82,2852.32 1369.49,2870.65 1373.5,2902C 1372,2921.67 1362.67,2936.33 1345.5,2946C 1326.31,2950.64 1306.98,2954.64 1287.5,2958C 1233.28,2967.4 1178.94,2976.07 1124.5,2984C 1111.83,2983.5 1099.16,2982.67 1086.5,2981.5C 1084.53,2987.7 1083.03,2994.04 1082,3000.5C 1079.37,3025.89 1090.87,3040.06 1116.5,3043C 1128.17,3043.67 1139.83,3043.67 1151.5,3043C 1206.26,3040.06 1260.92,3036.22 1315.5,3031.5C 1321.57,3046.87 1327.74,3062.21 1334,3077.5C 1342.54,3067.3 1352.04,3058.13 1362.5,3050C 1395.41,3036.42 1428.74,3023.92 1462.5,3012.5C 1467.66,3017.82 1472.66,3023.32 1477.5,3029C 1473.81,3038.41 1470.31,3047.91 1467,3057.5C 1464.51,3063.65 1460.67,3068.81 1455.5,3073C 1422.36,3094.13 1388.69,3114.46 1354.5,3134C 1349.59,3140.49 1344.92,3147.16 1340.5,3154C 1331.36,3160.9 1321.36,3166.24 1310.5,3170C 1300.09,3169.12 1289.76,3167.45 1279.5,3165C 1242.83,3156.67 1206.17,3148.33 1169.5,3140C 1156.92,3137.29 1144.25,3135.13 1131.5,3133.5C 1125.11,3133.92 1118.78,3134.76 1112.5,3136C 1067.61,3146.06 1022.94,3157.06 978.5,3169C 973.227,3170.42 968.227,3172.42 963.5,3175C 969.94,3207.66 978.44,3239.83 989,3271.5C 1005,3251.5 1021,3231.5 1037,3211.5C 1046.62,3199.54 1057.79,3189.38 1070.5,3181C 1087.07,3175.97 1103.4,3176.64 1119.5,3183C 1124.58,3187.96 1129.08,3193.46 1133,3199.5C 1143.4,3212.25 1156.56,3220.42 1172.5,3224C 1178.83,3224.67 1185.17,3224.67 1191.5,3224C 1206.88,3219.87 1222.22,3215.54 1237.5,3211C 1266.1,3208.91 1285.26,3221.41 1295,3248.5C 1295.72,3249.06 1296.56,3249.39 1297.5,3249.5C 1319.41,3241.47 1341.74,3234.97 1364.5,3230C 1372.48,3228.34 1379.81,3229.68 1386.5,3234C 1395.72,3243.39 1404.39,3253.22 1412.5,3263.5C 1406.01,3269.82 1399.34,3275.99 1392.5,3282C 1388,3285.75 1383,3288.75 1377.5,3291C 1333.26,3305.21 1287.93,3313.04 1241.5,3314.5C 1219.66,3314.05 1197.99,3311.88 1176.5,3308C 1150.2,3306.15 1124.2,3308.15 1098.5,3314C 1065.58,3321.72 1032.58,3329.05 999.5,3336C 1002.23,3345.41 1004.73,3354.91 1007,3364.5C 1008.33,3367.17 1009.67,3369.83 1011,3372.5C 1022.33,3386.5 1033.67,3400.5 1045,3414.5C 1050.28,3421.68 1052.28,3429.68 1051,3438.5C 1045.26,3484.11 1033.6,3528.11 1016,3570.5C 1001.12,3602.28 981.791,3630.94 958,3656.5C 935.263,3679.9 913.263,3703.9 892,3728.5C 645.101,3484.23 472.767,3194.23 375,2858.5C 269.114,2483.78 270.447,2109.45 379,1735.5C 485.591,1386.23 670.758,1086.73 934.5,837C 1252.39,543.605 1627.39,368.605 2059.5,312C 2509.75,260.58 2930.42,348.58 3321.5,576C 3621.57,752.736 3860.4,990.903 4038,1290.5C 4227.26,1618.86 4318.93,1972.86 4313,2352.5C 4309.4,2510 4285.56,2664.34 4241.5,2815.5C 4157.07,2805.13 4072.74,2793.96 3988.5,2782C 3977.97,2778.74 3968.64,2773.4 3960.5,2766C 3944.17,2750.33 3927.83,2734.67 3911.5,2719C 3902.78,2711.95 3893.78,2705.28 3884.5,2699C 3869.66,2692.79 3854.32,2688.12 3838.5,2685C 3829.16,2682.5 3820.83,2678.16 3813.5,2672C 3808.12,2666.29 3803.12,2660.29 3798.5,2654C 3796.28,2652.72 3793.95,2651.72 3791.5,2651C 3771.17,2649.99 3750.84,2648.99 3730.5,2648C 3719,2634.5 3707.5,2621 3696,2607.5C 3683.23,2591.98 3673.57,2574.64 3667,2555.5C 3658.78,2526.7 3662.78,2499.7 3679,2474.5C 3689.5,2458.99 3701.84,2444.99 3716,2432.5C 3720.41,2425.67 3723.75,2418.34 3726,2410.5C 3731.02,2390.71 3735.02,2370.71 3738,2350.5C 3741.16,2325.19 3744.16,2299.85 3747,2274.5C 3748.45,2263.19 3750.62,2252.02 3753.5,2241C 3753.33,2239.83 3753.17,2238.67 3753,2237.5C 3739.27,2226.72 3730.6,2212.72 3727,2195.5C 3725.15,2185.25 3724.32,2174.92 3724.5,2164.5C 3726.46,2145.04 3725.63,2125.7 3722,2106.5C 3710.99,2066.82 3697.99,2027.82 3683,1989.5C 3672.35,1961.89 3664.35,1933.56 3659,1904.5C 3656.14,1880.29 3654.31,1856.12 3653.5,1832C 3660.44,1829.67 3667.44,1828.5 3674.5,1828.5C 3693.47,1861.3 3712.63,1893.96 3732,1926.5C 3748.83,1887.04 3757.99,1845.87 3759.5,1803C 3759.16,1765.83 3750,1730.99 3732,1698.5C 3705.16,1650.15 3678.82,1601.49 3653,1552.5C 3631.01,1513.7 3604.51,1478.2 3573.5,1446C 3565.46,1438.29 3557.13,1430.96 3548.5,1424C 3480.18,1371.01 3410.18,1320.34 3338.5,1272C 3326.93,1265.1 3319.1,1255.27 3315,1242.5C 3314.33,1236.5 3314.33,1230.5 3315,1224.5C 3326.13,1173.23 3306.3,1141.73 3255.5,1130C 3241.72,1128.72 3228.05,1126.72 3214.5,1124C 3202.53,1121.7 3197.03,1114.54 3198,1102.5C 3200.3,1090.44 3204.46,1079.11 3210.5,1068.5C 3241.08,1076.98 3271.75,1084.81 3302.5,1092C 3285.95,1081.12 3272.45,1067.29 3262,1050.5C 3254.23,1032.18 3253.4,1013.51 3259.5,994.5C 3262.04,994.104 3264.21,994.771 3266,996.5C 3268.26,1000.45 3270.43,1004.45 3272.5,1008.5C 3274.15,1007.35 3275.65,1006.02 3277,1004.5C 3277.7,984.68 3274.04,965.68 3266,947.5C 3248.76,907.505 3220.93,877.338 3182.5,857C 3177.8,852.633 3174.3,847.466 3172,841.5C 3172.51,825.04 3170.17,809.04 3165,793.5C 3157.1,777.623 3144.26,768.789 3126.5,767C 3117.52,766.584 3108.69,766.418 3100,766.5C 3098.55,755.536 3098.21,744.536 3099,733.5C 3101.3,717.205 3110.46,707.372 3126.5,704C 3135.87,703.248 3145.2,703.415 3154.5,704.5C 3154.69,699.839 3154.02,695.339 3152.5,691C 3106,661.912 3059,633.579 3011.5,606C 3004.17,602.667 2996.83,599.333 2989.5,596C 2947.62,583.26 2905.95,569.927 2864.5,556C 2829.28,548.386 2794.62,550.386 2760.5,562C 2704.38,574.917 2648.38,574.583 2592.5,561C 2577.41,556.787 2562.74,551.453 2548.5,545C 2524.11,537.803 2499.77,538.136 2475.5,546C 2368.73,583.383 2264.73,627.383 2163.5,678C 2134.85,692.653 2106.85,708.32 2079.5,725C 2064.37,736.462 2050.87,749.629 2039,764.5C 2022.6,785.636 2006.93,807.303 1992,829.5C 1984.05,840.453 1975.72,851.12 1967,861.5C 1953.83,872 1940.67,882.5 1927.5,893C 1893.99,925.499 1867.49,962.999 1848,1005.5C 1804.65,1101.9 1773.98,1202.23 1756,1306.5C 1750.95,1339.66 1747.62,1373 1746,1406.5C 1745.67,1446.83 1745.33,1487.17 1745,1527.5C 1743.44,1564.51 1731.78,1597.84 1710,1627.5C 1684.81,1653.34 1670.15,1684.34 1666,1720.5C 1664.51,1789.58 1671.18,1857.91 1686,1925.5C 1716.79,2053.64 1778.96,2163.47 1872.5,2255C 1887.4,2265.23 1901.74,2276.23 1915.5,2288C 1919.05,2291.88 1922.22,2296.05 1925,2300.5C 1926.27,2311.76 1926.93,2323.1 1927,2334.5C 1928.13,2376.66 1928.97,2418.83 1929.5,2461C 1928.81,2500.51 1927.98,2540.01 1927,2579.5C 1928.83,2592.33 1935.99,2600.5 1948.5,2604C 1954.4,2605.59 1960.4,2606.43 1966.5,2606.5C 1974.51,2579.8 1983.51,2553.46 1993.5,2527.5C 2005.54,2533.34 2018.21,2535.51 2031.5,2534C 2039.9,2531.93 2045.4,2526.77 2048,2518.5C 2051.98,2503.33 2052.65,2487.99 2050,2472.5C 2049.5,2439.17 2049.33,2405.83 2049.5,2372.5C 2075.7,2384.44 2101.7,2396.6 2127.5,2409C 2095.43,2284.24 2063.6,2159.41 2032,2034.5C 2024.64,1999.67 2023.64,1964.67 2029,1929.5C 2031.38,1918.66 2034.38,1907.99 2038,1897.5C 2038.41,1897.04 2038.91,1896.71 2039.5,1896.5C 2071.86,1912.02 2104.2,1927.52 2136.5,1943C 2128.67,1950.83 2120.83,1958.67 2113,1966.5C 2111.63,1969.19 2110.3,1971.85 2109,1974.5C 2106.87,1999.97 2111.7,2023.97 2123.5,2046.5C 2135.41,2051.64 2147.74,2052.81 2160.5,2050C 2168.89,2043.28 2177.55,2036.95 2186.5,2031C 2203.3,2022.51 2221.14,2018.34 2240,2018.5C 2263.19,2020.04 2286.36,2021.87 2309.5,2024C 2314.4,2039.53 2319.4,2055.03 2324.5,2070.5C 2352.69,2042.07 2378.53,2011.73 2402,1979.5C 2408.8,1970.02 2414.8,1960.02 2420,1949.5C 2424.21,1936.48 2425.54,1923.15 2424,1909.5C 2423.1,1905.46 2421.43,1901.8 2419,1898.5C 2401.74,1882.78 2384.57,1866.95 2367.5,1851C 2346.69,1831.88 2323.02,1817.21 2296.5,1807C 2283.02,1802.64 2269.18,1800.47 2255,1800.5C 2228.08,1803.49 2201.08,1805.16 2174,1805.5C 2138.51,1804.32 2103.01,1803.65 2067.5,1803.5C 2076.16,1782.51 2085.66,1761.84 2096,1741.5C 2116.83,1702.34 2148,1674.84 2189.5,1659C 2199.68,1654.94 2210.02,1651.27 2220.5,1648C 2310.68,1621.96 2402.01,1600.96 2494.5,1585C 2527.15,1580.74 2559.81,1576.74 2592.5,1573C 2619.34,1565.28 2646.01,1556.94 2672.5,1548C 2698.21,1542.16 2723.88,1536.16 2749.5,1530C 2773.65,1526.27 2794.32,1532.94 2811.5,1550C 2812.73,1550.78 2814.06,1551.28 2815.5,1551.5C 2819.59,1550.64 2823.59,1549.47 2827.5,1548C 2849.75,1537.81 2872.08,1527.81 2894.5,1518C 2903.23,1514.2 2912.23,1511.2 2921.5,1509C 2931.31,1507.39 2940.64,1508.73 2949.5,1513C 2964.07,1524.56 2977.74,1537.23 2990.5,1551C 2999.33,1557.17 3008.17,1563.33 3017,1569.5C 3017.33,1549.83 3017.67,1530.17 3018,1510.5C 3026.35,1504.49 3034.68,1498.49 3043,1492.5C 3055.37,1517.57 3068.03,1542.57 3081,1567.5C 3082.56,1569.36 3084.39,1570.86 3086.5,1572C 3115.85,1575.68 3132.01,1592.18 3135,1621.5C 3135.42,1647.88 3136.42,1674.22 3138,1700.5C 3140.01,1707.18 3144.18,1712.01 3150.5,1715C 3155.02,1716.8 3159.69,1717.96 3164.5,1718.5C 3167.52,1728.37 3168.35,1738.37 3167,1748.5C 3139.64,1763.57 3129.31,1786.57 3136,1817.5C 3138.13,1828.48 3140.13,1839.48 3142,1850.5C 3142.72,1861.86 3142.55,1873.19 3141.5,1884.5C 3127.45,1883.52 3113.78,1880.69 3100.5,1876C 3076.79,1866.1 3053.46,1855.43 3030.5,1844C 3034.13,1825.98 3038.63,1808.15 3044,1790.5C 3046.45,1783.6 3049.45,1776.93 3053,1770.5C 3074.94,1737.86 3087.44,1701.86 3090.5,1662.5C 3089.04,1644.23 3083.54,1627.23 3074,1611.5C 3064.92,1596.33 3055.58,1581.33 3046,1566.5C 3045.67,1582.83 3045.33,1599.17 3045,1615.5C 3033.05,1603.44 3018.55,1596.61 3001.5,1595C 2987.47,1593.55 2973.47,1591.89 2959.5,1590C 2932.89,1585.72 2916.05,1570.55 2909,1544.5C 2869.12,1561.52 2829.29,1578.69 2789.5,1596C 2772.52,1604.16 2755.85,1612.82 2739.5,1622C 2706.89,1644.95 2674.55,1668.28 2642.5,1692C 2616.06,1704.04 2591.06,1718.38 2567.5,1735C 2535.72,1759.71 2517.89,1792.21 2514,1832.5C 2513.33,1846.5 2513.33,1860.5 2514,1874.5C 2517.01,1898.21 2520.34,1921.88 2524,1945.5C 2526.33,1973.48 2528.33,2001.48 2530,2029.5C 2532.66,2063.76 2538.66,2097.43 2548,2130.5C 2554.34,2150.18 2560.67,2169.84 2567,2189.5C 2570.66,2209.67 2563.5,2224.5 2545.5,2234C 2522.78,2246.76 2498.45,2252.43 2472.5,2251C 2448.6,2247.64 2431.43,2235.14 2421,2213.5C 2417.85,2205.55 2415.02,2197.55 2412.5,2189.5C 2382.18,2178 2358.01,2185.66 2340,2212.5C 2312.01,2262.49 2283.01,2311.82 2253,2360.5C 2241.48,2378.5 2227.81,2394.83 2212,2409.5C 2205.67,2417.17 2199.33,2424.83 2193,2432.5C 2184.04,2447.58 2175.21,2462.75 2166.5,2478C 2190.02,2488.26 2213.69,2498.26 2237.5,2508C 2256.46,2514.16 2275.46,2520.16 2294.5,2526C 2314.16,2536.3 2323.49,2552.63 2322.5,2575C 2321.88,2592.92 2318.88,2610.42 2313.5,2627.5C 2283.83,2609 2254.17,2590.5 2224.5,2572C 2226.29,2568.91 2227.96,2565.75 2229.5,2562.5C 2228.83,2562.17 2228.17,2561.83 2227.5,2561.5C 2216.14,2564.9 2204.8,2568.4 2193.5,2572C 2208.88,2589.71 2223.88,2607.71 2238.5,2626C 2170.82,2617.58 2103.15,2608.75 2035.5,2599.5 Z"/></g>
<g><path style="opacity:1" fill="#fefefe" d="M 3403.5,1614.5 C 3407.15,1614.62 3409.98,1616.29 3412,1619.5C 3446.46,1662.29 3481.29,1704.79 3516.5,1747C 3489.37,1752.77 3462.21,1758.27 3435,1763.5C 3436.12,1784.81 3437.28,1806.15 3438.5,1827.5C 3435.22,1827.22 3432.06,1827.55 3429,1828.5C 3413.47,1793.58 3398.14,1758.58 3383,1723.5C 3378.67,1706.5 3374.33,1689.5 3370,1672.5C 3363.4,1642.69 3374.56,1623.35 3403.5,1614.5 Z"/></g>
<g><path style="opacity:1" fill="#fdfdfd" d="M 3685.5,1707.5 C 3691.76,1707.19 3697.92,1707.52 3704,1708.5C 3706.02,1741.83 3707.85,1775.16 3709.5,1808.5C 3699.83,1808.5 3690.17,1808.5 3680.5,1808.5C 3681.34,1774.74 3683,1741.07 3685.5,1707.5 Z"/></g>
<g><path style="opacity:1" fill="#fefefe" d="M 2860.5,1710.5 C 2886.47,1708.66 2911.81,1711.83 2936.5,1720C 2946.24,1723.14 2955.91,1726.47 2965.5,1730C 2969.33,1732.5 2972.5,1735.67 2975,1739.5C 2979.18,1747.86 2983.35,1756.2 2987.5,1764.5C 2980.48,1768.13 2973.15,1771.29 2965.5,1774C 2961.9,1775.28 2958.24,1775.61 2954.5,1775C 2925.7,1747.05 2892.03,1739.05 2853.5,1751C 2840.33,1755.61 2827.33,1760.61 2814.5,1766C 2805.49,1765.59 2796.49,1764.76 2787.5,1763.5C 2793.89,1737.94 2809.89,1721.77 2835.5,1715C 2843.9,1713.05 2852.23,1711.55 2860.5,1710.5 Z"/></g>
<g><path style="opacity:0.999" fill="#fefefe" d="M 3208.5,1753.5 C 3223.26,1782.19 3237.93,1811.03 3252.5,1840C 3247.93,1844.57 3243.43,1849.07 3239,1853.5C 3212.27,1839.22 3185.77,1824.55 3159.5,1809.5C 3176.56,1796.28 3194.06,1783.62 3212,1771.5C 3211.17,1765.49 3210,1759.49 3208.5,1753.5 Z"/></g>
<g><path style="opacity:1" fill="#fefefe" d="M 2754.5,1855.5 C 2755.76,1856.51 2756.43,1858.01 2756.5,1860C 2756.9,1863.17 2757.23,1866.33 2757.5,1869.5C 2801.5,1869.33 2845.5,1869.5 2889.5,1870C 2907.89,1870.05 2926.22,1870.72 2944.5,1872C 2920.07,1883.55 2895.4,1894.55 2870.5,1905C 2855.47,1914.56 2849.97,1928.06 2854,1945.5C 2855.61,1950.17 2857.11,1954.83 2858.5,1959.5C 2877.98,1954.84 2896.98,1948.67 2915.5,1941C 2934.07,1932.77 2944.57,1918.6 2947,1898.5C 2947.54,1888.78 2947.04,1879.12 2945.5,1869.5C 2964.85,1872 2984.18,1874.67 3003.5,1877.5C 3006.39,1880.25 3008.55,1883.58 3010,1887.5C 3016.73,1902.62 3023.73,1917.62 3031,1932.5C 3031.67,1933.83 3031.67,1935.17 3031,1936.5C 3026.2,1942.3 3021.03,1947.8 3015.5,1953C 2997.99,1967.68 2980.66,1982.51 2963.5,1997.5C 2999.14,2036.98 3033.47,2077.48 3066.5,2119C 3022.42,2139.36 2978.25,2159.53 2934,2179.5C 2902.6,2161.89 2871.77,2143.39 2841.5,2124C 2819.35,2106.76 2797.01,2089.76 2774.5,2073C 2754.04,2053.44 2749.54,2030.61 2761,2004.5C 2762.47,1988.06 2758.47,1973.06 2749,1959.5C 2740.56,1949.73 2732.9,1939.4 2726,1928.5C 2717.31,1910.42 2718.98,1893.42 2731,1877.5C 2738.38,1869.62 2746.21,1862.29 2754.5,1855.5 Z"/></g>
<g><path style="opacity:0.999" fill="#fefefe" d="M 3430.5,1946.5 C 3436.24,1946.75 3441.91,1947.58 3447.5,1949C 3466.65,1955.55 3485.98,1961.38 3505.5,1966.5C 3497.24,1989.69 3488.41,2012.69 3479,2035.5C 3475.63,2029.13 3471.13,2023.63 3465.5,2019C 3452.33,2010.58 3439.33,2001.91 3426.5,1993C 3416.35,1982.38 3414.85,1970.54 3422,1957.5C 3424.35,1953.34 3427.18,1949.67 3430.5,1946.5 Z"/></g>
<g><path style="opacity:1" fill="#fefefe" d="M 3282.5,1974.5 C 3315.57,1979.61 3341.4,1995.94 3360,2023.5C 3362.53,2028.75 3364.86,2034.08 3367,2039.5C 3371.87,2056.44 3376.54,2073.44 3381,2090.5C 3383.9,2102.14 3389.73,2111.97 3398.5,2120C 3405.44,2123.4 3412.77,2124.4 3420.5,2123C 3427.4,2120.55 3434.07,2117.55 3440.5,2114C 3459,2101.58 3478,2089.91 3497.5,2079C 3531.58,2060.55 3565.41,2041.71 3599,2022.5C 3604.03,2070.22 3603.36,2117.89 3597,2165.5C 3593.64,2190.67 3589.31,2215.67 3584,2240.5C 3573.59,2286.48 3562.09,2332.14 3549.5,2377.5C 3514.01,2358.59 3478.67,2339.42 3443.5,2320C 3436,2320.71 3428.67,2322.37 3421.5,2325C 3438.35,2357.58 3444.52,2392.08 3440,2428.5C 3435.91,2450.1 3427.91,2470.1 3416,2488.5C 3408.38,2499.12 3400.38,2509.45 3392,2519.5C 3369.18,2543.16 3345.01,2565.16 3319.5,2585.5C 3327.5,2538.34 3337.67,2491.34 3350,2444.5C 3352.92,2426.17 3351.59,2408.17 3346,2390.5C 3343.53,2383.42 3340.86,2376.42 3338,2369.5C 3321.27,2335.04 3304.27,2300.71 3287,2266.5C 3270.71,2233.62 3258.37,2199.29 3250,2163.5C 3246.97,2147.97 3244.97,2132.3 3244,2116.5C 3243.75,2087.19 3243.75,2057.85 3244,2028.5C 3243.35,2010.97 3249.85,1996.81 3263.5,1986C 3269.5,1981.48 3275.83,1977.64 3282.5,1974.5 Z"/></g>
<g><path style="opacity:1" fill="#fefefe" d="M 2398.5,2293.5 C 2422.61,2304.15 2446.94,2314.32 2471.5,2324C 2502.75,2336.42 2535.08,2341.08 2568.5,2338C 2582.72,2335.03 2597.05,2332.86 2611.5,2331.5C 2627.73,2332.56 2643.73,2335.06 2659.5,2339C 2682,2345.62 2704.66,2351.62 2727.5,2357C 2728.81,2364.51 2728.48,2372.01 2726.5,2379.5C 2648.96,2398.57 2571.29,2417.07 2493.5,2435C 2483.95,2438.89 2474.61,2443.22 2465.5,2448C 2429.99,2462.04 2399.66,2454.87 2374.5,2426.5C 2382.61,2382.17 2390.61,2337.83 2398.5,2293.5 Z"/></g>
<g><path style="opacity:1" fill="#fefefe" d="M 2871.5,2394.5 C 2872.04,2394.56 2872.38,2394.89 2872.5,2395.5C 2866.81,2405.55 2861.64,2415.89 2857,2426.5C 2854.35,2431.63 2850.85,2436.13 2846.5,2440C 2813.55,2464.82 2777.55,2484.49 2738.5,2499C 2684.47,2518.67 2629.14,2533.01 2572.5,2542C 2558.61,2536.72 2545.61,2529.89 2533.5,2521.5C 2539.86,2513.64 2546.02,2505.64 2552,2497.5C 2555.91,2492.92 2560.41,2489.08 2565.5,2486C 2591.71,2477.26 2618.04,2468.93 2644.5,2461C 2720.42,2439.27 2796.09,2417.11 2871.5,2394.5 Z"/></g>
<g><path style="opacity:1" fill="#fefefe" d="M 3040.5,2431.5 C 3061.83,2431.5 3083.17,2431.5 3104.5,2431.5C 3110.57,2466.91 3108.74,2501.91 3099,2536.5C 3092.36,2557.98 3080.2,2575.48 3062.5,2589C 3048.31,2597.86 3032.98,2601.03 3016.5,2598.5C 3024.31,2542.81 3032.31,2487.14 3040.5,2431.5 Z"/></g>
<g><path style="opacity:1" fill="#fefefe" d="M 2842.5,2528.5 C 2856.5,2528.33 2870.5,2528.5 2884.5,2529C 2862.44,2557.35 2833.77,2575.68 2798.5,2584C 2776.26,2588.85 2753.93,2593.18 2731.5,2597C 2713.11,2600.91 2695.78,2607.57 2679.5,2617C 2663.48,2627.35 2646.81,2636.68 2629.5,2645C 2614.41,2651.16 2598.74,2653.16 2582.5,2651C 2569.11,2649.77 2555.78,2648.1 2542.5,2646C 2494.71,2635.97 2447.04,2625.47 2399.5,2614.5C 2402.14,2597.98 2405.64,2581.65 2410,2565.5C 2411.68,2559.96 2414.52,2555.13 2418.5,2551C 2431.86,2546.81 2445.19,2547.14 2458.5,2552C 2476.18,2564.51 2494.85,2575.51 2514.5,2585C 2555.42,2601.99 2597.08,2603.99 2639.5,2591C 2706.61,2567.81 2774.28,2546.98 2842.5,2528.5 Z"/></g>
<g><path style="opacity:1" fill="#ea91ad" d="M 1822.5,2578.5 C 1843.83,2578.5 1865.17,2578.5 1886.5,2578.5C 1886.5,2602.5 1886.5,2626.5 1886.5,2650.5C 1801.5,2650.33 1716.5,2650.5 1631.5,2651C 1610.25,2650.63 1589.25,2652.63 1568.5,2657C 1552.2,2660.38 1541.37,2669.88 1536,2685.5C 1533.91,2693.03 1532.58,2700.7 1532,2708.5C 1531.5,2727.16 1531.33,2745.83 1531.5,2764.5C 1517.59,2763.29 1503.93,2760.79 1490.5,2757C 1476.76,2751.35 1471.59,2741.18 1475,2726.5C 1477.33,2717.51 1480.5,2708.85 1484.5,2700.5C 1483.5,2695.67 1482,2691 1480,2686.5C 1474.14,2676.79 1468.81,2666.79 1464,2656.5C 1454.82,2625 1466.32,2606.5 1498.5,2601C 1606.7,2594.09 1714.7,2586.59 1822.5,2578.5 Z"/></g>
<g><path style="opacity:0.922" fill="#e2bdc9" d="M 2035.5,2599.5 C 2033.95,2599.82 2033.29,2600.82 2033.5,2602.5C 2032.57,2601.43 2032.23,2600.1 2032.5,2598.5C 2033.79,2598.26 2034.79,2598.6 2035.5,2599.5 Z"/></g>
<g><path style="opacity:1" fill="#fefefe" d="M 2847.5,2638.5 C 2854.49,2638.61 2861.15,2640.11 2867.5,2643C 2876.88,2649.38 2884.55,2657.38 2890.5,2667C 2894.37,2668.37 2898.37,2669.2 2902.5,2669.5C 2916.76,2668.4 2930.76,2665.9 2944.5,2662C 2956.88,2655.73 2968.72,2648.56 2980,2640.5C 2984.67,2643.83 2989.33,2647.17 2994,2650.5C 2972.14,2684.49 2949.48,2718.16 2926,2751.5C 2916.05,2739.21 2904.55,2728.71 2891.5,2720C 2878.57,2712.35 2865.91,2712.69 2853.5,2721C 2848.3,2725.87 2843.47,2731.03 2839,2736.5C 2829.33,2752.5 2819.67,2768.5 2810,2784.5C 2794.6,2802.51 2776.27,2806.18 2755,2795.5C 2752.51,2778.21 2750.34,2760.88 2748.5,2743.5C 2706.49,2737.14 2664.49,2730.64 2622.5,2724C 2619.35,2720.04 2616.68,2715.7 2614.5,2711C 2624.21,2704.81 2634.21,2699.15 2644.5,2694C 2647.17,2693.33 2649.83,2693.33 2652.5,2694C 2683.06,2703.78 2712.73,2701.45 2741.5,2687C 2766.55,2673.47 2791.88,2660.47 2817.5,2648C 2827.28,2643.68 2837.28,2640.52 2847.5,2638.5 Z"/></g>
<g><path style="opacity:1" fill="#fefefe" d="M 3356.5,2639.5 C 3363.12,2639.98 3369.12,2642.15 3374.5,2646C 3395.26,2665.01 3404.76,2688.51 3403,2716.5C 3392,2735.17 3381,2753.83 3370,2772.5C 3345.92,2816.99 3321.59,2861.33 3297,2905.5C 3268.05,2956.78 3234.05,3004.45 3195,3048.5C 3168.18,3076.01 3139.01,3100.51 3107.5,3122C 3071.89,3145.27 3036.56,3168.94 3001.5,3193C 2982.96,3206.54 2965.29,3221.2 2948.5,3237C 2930.88,3236.9 2915.55,3230.9 2902.5,3219C 2892.54,3207.37 2882.2,3196.03 2871.5,3185C 2861.32,3176.54 2849.66,3173.54 2836.5,3176C 2818.61,3180.3 2800.78,3184.8 2783,3189.5C 2750.76,3133.36 2718.76,3077.02 2687,3020.5C 2686.33,3019.5 2686.33,3018.5 2687,3017.5C 2691.33,3014.83 2695.67,3012.17 2700,3009.5C 2715.67,3028.17 2731.33,3046.83 2747,3065.5C 2757.83,3080.49 2768.16,3095.82 2778,3111.5C 2784.79,3121.96 2793.29,3130.79 2803.5,3138C 2814.68,3143.57 2826.01,3143.91 2837.5,3139C 2847.91,3133.26 2856.41,3125.43 2863,3115.5C 2875.9,3094.38 2887.23,3072.38 2897,3049.5C 2898.92,3043.32 2899.75,3036.99 2899.5,3030.5C 2898.65,3018.51 2897.99,3006.51 2897.5,2994.5C 2932.61,2992.27 2967.28,2995.1 3001.5,3003C 3037.27,3010.32 3064.44,2998.48 3083,2967.5C 3086.61,2960.62 3089.94,2953.62 3093,2946.5C 3102.54,2917.1 3114.54,2888.76 3129,2861.5C 3143.69,2835.81 3163.52,2814.98 3188.5,2799C 3194.27,2796.08 3200.27,2793.74 3206.5,2792C 3213.92,2790.48 3221.25,2788.65 3228.5,2786.5C 3233.55,2791.59 3237.88,2797.25 3241.5,2803.5C 3230.66,2817.65 3218.99,2831.15 3206.5,2844C 3204.11,2845.86 3201.45,2847.19 3198.5,2848C 3189.36,2848.94 3180.36,2850.61 3171.5,2853C 3162.46,2856.04 3156.96,2862.21 3155,2871.5C 3154.02,2888.58 3157.02,2904.91 3164,2920.5C 3205.67,2885.5 3247.33,2850.5 3289,2815.5C 3277.36,2789.88 3264.86,2764.55 3251.5,2739.5C 3252,2738.48 3252.67,2738.31 3253.5,2739C 3262.18,2745.49 3271.18,2751.16 3280.5,2756C 3299.01,2724.83 3315.84,2692.66 3331,2659.5C 3336.83,2649.14 3345.33,2642.47 3356.5,2639.5 Z"/></g>
<g><path style="opacity:1" fill="#fefdfd" d="M 3541.5,2653.5 C 3542.38,2653.37 3543.04,2653.7 3543.5,2654.5C 3520.62,2723.98 3497.45,2793.31 3474,2862.5C 3470.34,2837.08 3471,2811.74 3476,2786.5C 3482.42,2752.9 3493.42,2720.9 3509,2690.5C 3516.6,2675.27 3527.44,2662.93 3541.5,2653.5 Z"/></g>
<g><path style="opacity:1" fill="#ea92ad" d="M 2370.5,2800.5 C 2383.24,2799.47 2394.57,2802.97 2404.5,2811C 2429.74,2832.63 2445.91,2859.8 2453,2892.5C 2454.33,2899.46 2454.66,2906.46 2454,2913.5C 2447.78,2946.4 2442.11,2979.4 2437,3012.5C 2430.9,3044.11 2413.4,3052.28 2384.5,3037C 2365.53,3024.36 2350.36,3008.19 2339,2988.5C 2334.54,2978.83 2332.37,2968.66 2332.5,2958C 2333.57,2947.5 2334.57,2937 2335.5,2926.5C 2334.82,2905.48 2333.82,2884.48 2332.5,2863.5C 2332.16,2834.49 2344.83,2813.49 2370.5,2800.5 Z"/></g>
<g><path style="opacity:1" fill="#ea92ad" d="M 1151.5,2832.5 C 1154.29,2832.45 1156.13,2833.79 1157,2836.5C 1160.3,2842.63 1163.8,2848.63 1167.5,2854.5C 1167.29,2855.09 1166.96,2855.59 1166.5,2856C 1127.84,2873.16 1090.17,2892.16 1053.5,2913C 1027.17,2931.5 999.841,2948.5 971.5,2964C 969.385,2964.56 967.385,2965.39 965.5,2966.5C 965.167,2966.17 964.833,2965.83 964.5,2965.5C 986.027,2924.47 1017.36,2893.31 1058.5,2872C 1088.9,2857.13 1119.9,2843.96 1151.5,2832.5 Z"/></g>
<g><path style="opacity:1" fill="#fefefe" d="M 3717.5,2904.5 C 3718.59,2904.62 3719.25,2905.29 3719.5,2906.5C 3725.32,2928.08 3725.82,2949.75 3721,2971.5C 3717.83,2982.17 3712.83,2991.84 3706,3000.5C 3687.8,3020.42 3666.63,3035.92 3642.5,3047C 3636.05,3019.41 3637.55,2992.24 3647,2965.5C 3656.61,2943.89 3671.78,2927.39 3692.5,2916C 3700.72,2911.66 3709.06,2907.83 3717.5,2904.5 Z"/></g>
<g><path style="opacity:1" fill="#fefefe" d="M 3899.5,2932.5 C 3909.9,2933.26 3920.24,2934.59 3930.5,2936.5C 3926.73,2943.71 3923.23,2951.05 3920,2958.5C 3913.43,3006.29 3910.43,3054.29 3911,3102.5C 3914.36,3117.23 3918.52,3131.73 3923.5,3146C 3923.41,3147.11 3923.08,3148.11 3922.5,3149C 3913.17,3153.33 3903.83,3157.67 3894.5,3162C 3885.84,3165.94 3876.84,3168.78 3867.5,3170.5C 3862.24,3170.12 3858.08,3167.79 3855,3163.5C 3852.57,3158.76 3850.9,3153.76 3850,3148.5C 3847.62,3129.88 3845.62,3111.21 3844,3092.5C 3839.51,3078.36 3835.84,3064.03 3833,3049.5C 3830.37,3018.02 3838.04,2989.36 3856,2963.5C 3867.11,2948.19 3881.61,2937.86 3899.5,2932.5 Z"/></g>
<g><path style="opacity:0.999" fill="#fefefe" d="M 3546.5,3017.5 C 3547.24,3017.37 3547.91,3017.54 3548.5,3018C 3544.05,3046.79 3539.71,3075.62 3535.5,3104.5C 3535,3104.83 3534.5,3105.17 3534,3105.5C 3510.57,3097.52 3487.07,3089.86 3463.5,3082.5C 3464.66,3075.86 3466.33,3069.36 3468.5,3063C 3494.73,3048.06 3520.73,3032.89 3546.5,3017.5 Z"/></g>
<g><path style="opacity:1" fill="#ea91ad" d="M 2395.5,3101.5 C 2407.08,3101.24 2413.58,3106.9 2415,3118.5C 2419.7,3165.15 2424.2,3211.82 2428.5,3258.5C 2427.83,3274.67 2421.16,3287.84 2408.5,3298C 2391.58,3298.63 2377.41,3292.47 2366,3279.5C 2365.33,3278.17 2364.67,3276.83 2364,3275.5C 2360.93,3257.94 2358.6,3240.27 2357,3222.5C 2353.63,3186.31 2351.46,3150.14 2350.5,3114C 2365.33,3108.71 2380.33,3104.55 2395.5,3101.5 Z"/></g>
<g><path style="opacity:1" fill="#fefefe" d="M 3471.5,3138.5 C 3486.33,3149.15 3500.16,3161.15 3513,3174.5C 3517.72,3179.6 3520.55,3185.6 3521.5,3192.5C 3520.53,3203.04 3517.7,3213.04 3513,3222.5C 3512.05,3224.57 3510.55,3226.07 3508.5,3227C 3502.53,3227.91 3496.53,3228.57 3490.5,3229C 3466.49,3229.83 3442.49,3229.67 3418.5,3228.5C 3436.22,3198.47 3453.89,3168.47 3471.5,3138.5 Z"/></g>
<g><path style="opacity:1" fill="#fefefe" d="M 2822.5,3243.5 C 2842.91,3266.74 2865.24,3288.24 2889.5,3308C 2902.5,3320.32 2914,3333.82 2924,3348.5C 2936.82,3370.62 2941.16,3394.29 2937,3419.5C 2932,3422.83 2927,3426.17 2922,3429.5C 2883.5,3371.67 2845,3313.83 2806.5,3256C 2812.08,3252.05 2817.42,3247.89 2822.5,3243.5 Z"/></g>
<g><path style="opacity:0.999" fill="#fefefe" d="M 3245.5,3305.5 C 3247.29,3305.21 3248.95,3305.55 3250.5,3306.5C 3235.25,3335.99 3219.75,3365.32 3204,3394.5C 3186.5,3371 3169,3347.5 3151.5,3324C 3182.99,3317.92 3214.32,3311.76 3245.5,3305.5 Z"/></g>
<g><path style="opacity:1" fill="#fefefe" d="M 3315.5,3329.5 C 3337.71,3332.44 3357.71,3340.61 3375.5,3354C 3397.06,3375 3407.06,3400.67 3405.5,3431C 3404.7,3457.69 3400.53,3483.85 3393,3509.5C 3385.85,3534.1 3379.02,3558.76 3372.5,3583.5C 3365.5,3583.5 3358.5,3583.5 3351.5,3583.5C 3348.63,3553.43 3345.13,3523.43 3341,3493.5C 3337.47,3478.92 3333.14,3464.58 3328,3450.5C 3326.61,3445.24 3325.61,3439.91 3325,3434.5C 3321.17,3399.56 3318.01,3364.56 3315.5,3329.5 Z"/></g>
<g><path style="opacity:0.999" fill="#fefefe" d="M 1477.5,3339.5 C 1479.79,3339.24 1481.96,3339.58 1484,3340.5C 1487.04,3346.08 1490.21,3351.58 1493.5,3357C 1483.5,3367.33 1473.5,3377.67 1463.5,3388C 1453.97,3397.14 1443.31,3398.8 1431.5,3393C 1419.86,3384.36 1408.53,3375.36 1397.5,3366C 1398.92,3360.84 1400.25,3355.67 1401.5,3350.5C 1427.04,3347.38 1452.37,3343.71 1477.5,3339.5 Z"/></g>
<g><path style="opacity:1" fill="#fefefe" d="M 1332.5,3372.5 C 1335.57,3372.18 1338.57,3372.52 1341.5,3373.5C 1324.58,3400.34 1307.42,3427 1290,3453.5C 1286.55,3458.62 1282.71,3463.45 1278.5,3468C 1271.88,3471.81 1264.88,3474.81 1257.5,3477C 1228.54,3484.49 1199.54,3491.82 1170.5,3499C 1156.68,3503.61 1143.01,3508.61 1129.5,3514C 1106.58,3520.46 1090.75,3512.63 1082,3490.5C 1076.78,3474.85 1070.78,3459.52 1064,3444.5C 1060.77,3418.03 1071.93,3400.53 1097.5,3392C 1123,3387.75 1148.67,3384.75 1174.5,3383C 1227.32,3379.43 1279.99,3375.93 1332.5,3372.5 Z"/></g>
<g><path style="opacity:1" fill="#fefefe" d="M 3111.5,3394.5 C 3113.29,3394.21 3114.95,3394.55 3116.5,3395.5C 3120.74,3406.06 3125.07,3416.56 3129.5,3427C 3115.67,3448.17 3101.83,3469.33 3088,3490.5C 3079,3502.17 3070,3513.83 3061,3525.5C 3053.76,3536.99 3052.76,3548.99 3058,3561.5C 3064.92,3573 3071.59,3584.67 3078,3596.5C 3080.1,3601.3 3081.27,3606.3 3081.5,3611.5C 3105.05,3600.39 3128.38,3588.73 3151.5,3576.5C 3160.4,3589.3 3166.9,3603.3 3171,3618.5C 3172.39,3627.6 3170.06,3635.6 3164,3642.5C 3148.31,3657.92 3132.14,3672.75 3115.5,3687C 3083.85,3711.49 3048.19,3726.33 3008.5,3731.5C 3012.44,3715.67 3013.27,3699.67 3011,3683.5C 3006.08,3658.21 3001.41,3632.88 2997,3607.5C 2992.87,3572.91 3002.53,3542.91 3026,3517.5C 3028.59,3512.74 3030.59,3507.74 3032,3502.5C 3032.64,3491.12 3032.14,3479.79 3030.5,3468.5C 3031.78,3436.06 3047.78,3414.56 3078.5,3404C 3089.48,3400.28 3100.48,3397.11 3111.5,3394.5 Z"/></g>
<g><path style="opacity:1" fill="#fefefe" d="M 2844.5,3502.5 C 2869.81,3530.57 2882.48,3563.73 2882.5,3602C 2882.02,3614.57 2880.85,3627.07 2879,3639.5C 2874.14,3665.26 2868.81,3690.93 2863,3716.5C 2862,3724.17 2861,3731.83 2860,3739.5C 2856.81,3781.83 2853.81,3824.16 2851,3866.5C 2845.8,3900.64 2828.97,3927.14 2800.5,3946C 2790.8,3951.4 2780.46,3954.9 2769.5,3956.5C 2757.17,3895.3 2764.67,3836.64 2792,3780.5C 2793.71,3774.93 2795.05,3769.26 2796,3763.5C 2798.26,3738.98 2800.09,3714.48 2801.5,3690C 2800.22,3686.94 2799.72,3683.78 2800,3680.5C 2825.9,3640.78 2840.24,3597.12 2843,3549.5C 2844.16,3533.85 2844.66,3518.19 2844.5,3502.5 Z"/></g>
<g><path style="opacity:1" fill="#fefefe" d="M 1549.5,3528.5 C 1610.77,3535.55 1672.1,3542.05 1733.5,3548C 1782.49,3551.53 1831.49,3554.86 1880.5,3558C 1824.33,3615.83 1760,3662.49 1687.5,3698C 1661.02,3710.04 1633.35,3717.54 1604.5,3720.5C 1615.83,3740.5 1627.66,3760.17 1640,3779.5C 1662.7,3828.55 1652.53,3869.38 1609.5,3902C 1576.19,3925.99 1542.19,3948.99 1507.5,3971C 1497.98,3977.26 1487.65,3981.59 1476.5,3984C 1461.96,3985.87 1447.46,3987.7 1433,3989.5C 1432.31,3988.97 1431.81,3988.31 1431.5,3987.5C 1432.65,3979.2 1432.65,3970.87 1431.5,3962.5C 1431.83,3953.05 1433,3943.72 1435,3934.5C 1458.27,3870.68 1481.94,3807.01 1506,3743.5C 1515.07,3717.64 1523.73,3691.64 1532,3665.5C 1536.03,3650.03 1539.03,3634.36 1541,3618.5C 1544.16,3588.53 1547,3558.53 1549.5,3528.5 Z"/></g>
<g><path style="opacity:1" fill="#fefefe" d="M 3345.5,3587.5 C 3373.94,3612.57 3389.11,3644.24 3391,3682.5C 3391.71,3709.85 3392.71,3737.18 3394,3764.5C 3395.09,3774.09 3397.25,3783.43 3400.5,3792.5C 3386.01,3801.24 3370.68,3808.08 3354.5,3813C 3331.39,3816.95 3313.39,3809.11 3300.5,3789.5C 3315.27,3776.57 3326.77,3761.24 3335,3743.5C 3342.09,3725.81 3344.43,3707.48 3342,3688.5C 3339.2,3673.8 3335.7,3659.3 3331.5,3645C 3331.73,3641.13 3332.23,3637.3 3333,3633.5C 3337.48,3618.24 3341.65,3602.9 3345.5,3587.5 Z"/></g>
<g><path style="opacity:1" fill="#fefdfe" d="M 3544.5,3666.5 C 3557.14,3664.96 3563.98,3670.63 3565,3683.5C 3566.3,3694.96 3567.14,3706.46 3567.5,3718C 3566.74,3739.84 3565.91,3761.67 3565,3783.5C 3564.5,3785.99 3563,3787.49 3560.5,3788C 3542.46,3795.07 3524.46,3802.24 3506.5,3809.5C 3505.33,3785.84 3505.17,3762.17 3506,3738.5C 3518.42,3744.96 3530.92,3751.29 3543.5,3757.5C 3548.16,3755.51 3552.49,3753.01 3556.5,3750C 3547.5,3724.33 3538.5,3698.67 3529.5,3673C 3534.48,3670.52 3539.48,3668.35 3544.5,3666.5 Z"/></g>
</svg>
